<svg xmlns="http://www.w3.org/2000/svg" xmlns:xlink="http://www.w3.org/1999/xlink" width="1280" zoomAndPan="magnify" viewBox="200 150 960 250.000001" height="250" preserveAspectRatio="xMidYMid meet" version="1.0"><defs><g/><clipPath id="fd249ac5ae"><path d="M 134 167.335938 L 219 167.335938 L 219 220 L 134 220 Z M 134 167.335938 " clip-rule="nonzero"/></clipPath><clipPath id="6cbd208370"><path d="M 112 167.335938 L 177 167.335938 L 177 304 L 112 304 Z M 112 167.335938 " clip-rule="nonzero"/></clipPath><clipPath id="73ee49a262"><path d="M 112 336 L 197 336 L 197 388.925781 L 112 388.925781 Z M 112 336 " clip-rule="nonzero"/></clipPath><clipPath id="03c6b8955a"><path d="M 154.460938 252.648438 L 219 252.648438 L 219 388.925781 L 154.460938 388.925781 Z M 154.460938 252.648438 " clip-rule="nonzero"/></clipPath><clipPath id="ef6d615e4d"><path d="M 140.101562 225 L 276.378906 225 L 276.378906 289.8125 L 140.101562 289.8125 Z M 140.101562 225 " clip-rule="nonzero"/></clipPath><clipPath id="0744b757a1"><path d="M 54.789062 267 L 192 267 L 192 332 L 54.789062 332 Z M 54.789062 267 " clip-rule="nonzero"/></clipPath></defs><g clip-path="url(#fd249ac5ae)"><path fill="#51ade5" d="M 134.71875 217.285156 C 134.71875 201.984375 147.167969 189.539062 162.46875 189.539062 L 168.925781 189.539062 C 184.222656 189.539062 196.671875 201.984375 196.671875 217.285156 L 196.671875 219.523438 L 218.871094 219.523438 L 218.871094 217.285156 C 218.871094 192.382812 200.636719 171.738281 176.792969 167.960938 C 152.949219 171.738281 134.71875 192.382812 134.71875 217.285156 " fill-opacity="1" fill-rule="nonzero"/></g><path fill="#5fc3f0" d="M 189.710938 175.0625 C 203.390625 182.988281 212.351562 197.632812 212.585938 214.320312 L 199.441406 214.320312 C 199.515625 215.074219 199.566406 215.835938 199.585938 216.601562 L 215.949219 216.601562 C 215.691406 198.441406 205.285156 182.660156 189.710938 175.0625 " fill-opacity="1" fill-rule="nonzero"/><g clip-path="url(#6cbd208370)"><path fill="#5650e8" d="M 162.46875 167.339844 C 134.878906 167.339844 112.519531 189.699219 112.519531 217.285156 L 112.519531 303.671875 L 134.71875 303.671875 L 134.71875 217.285156 C 134.71875 192.382812 152.949219 171.738281 176.792969 167.960938 C 174.230469 167.554688 171.601562 167.339844 168.925781 167.339844 L 162.46875 167.339844 " fill-opacity="1" fill-rule="nonzero"/></g><path fill="#51ade5" d="M 115.4375 300.753906 L 131.796875 300.753906 L 131.796875 296.8125 L 118.816406 296.8125 L 118.816406 213.347656 C 118.816406 202.589844 122.453125 192.671875 128.554688 184.738281 C 120.433594 193.191406 115.4375 204.667969 115.4375 217.285156 L 115.4375 300.753906 " fill-opacity="1" fill-rule="nonzero"/><g clip-path="url(#73ee49a262)"><path fill="#51ade5" d="M 196.671875 339.207031 C 196.671875 354.507812 184.222656 366.957031 168.925781 366.957031 L 162.46875 366.957031 C 147.167969 366.957031 134.71875 354.507812 134.71875 339.207031 L 134.71875 336.96875 L 112.519531 336.96875 L 112.519531 339.207031 C 112.519531 364.113281 130.753906 384.757812 154.597656 388.53125 C 178.441406 384.757812 196.671875 364.113281 196.671875 339.207031 " fill-opacity="1" fill-rule="nonzero"/></g><path fill="#5fc3f0" d="M 141.679688 381.433594 C 128 373.503906 119.039062 358.863281 118.804688 342.175781 L 131.949219 342.175781 C 131.878906 341.421875 131.824219 340.660156 131.804688 339.890625 L 115.441406 339.890625 C 115.699219 358.050781 126.105469 373.835938 141.679688 381.433594 " fill-opacity="1" fill-rule="nonzero"/><g clip-path="url(#03c6b8955a)"><path fill="#5650e8" d="M 168.925781 389.15625 C 196.507812 389.15625 218.871094 366.792969 218.871094 339.207031 L 218.871094 252.820312 L 196.671875 252.820312 L 196.671875 339.207031 C 196.671875 364.113281 178.441406 384.757812 154.597656 388.53125 C 157.160156 388.941406 159.792969 389.15625 162.46875 389.15625 L 168.925781 389.15625 " fill-opacity="1" fill-rule="nonzero"/></g><path fill="#51ade5" d="M 215.953125 255.742188 L 199.59375 255.742188 L 199.59375 259.679688 L 212.578125 259.679688 L 212.578125 343.148438 C 212.578125 353.90625 208.9375 363.824219 202.835938 371.757812 C 210.957031 363.300781 215.953125 351.828125 215.953125 339.207031 L 215.953125 255.742188 " fill-opacity="1" fill-rule="nonzero"/><path fill="#51ade5" d="M 226.65625 247.269531 C 241.960938 247.269531 254.40625 259.722656 254.40625 275.019531 L 254.40625 281.476562 C 254.40625 296.773438 241.960938 309.222656 226.65625 309.222656 L 224.417969 309.222656 L 224.417969 331.421875 L 226.65625 331.421875 C 251.5625 331.421875 272.207031 313.1875 275.980469 289.34375 C 272.207031 265.5 251.5625 247.269531 226.65625 247.269531 " fill-opacity="1" fill-rule="nonzero"/><path fill="#5fc3f0" d="M 268.882812 302.261719 C 260.953125 315.941406 246.308594 324.902344 229.621094 325.136719 L 229.621094 311.992188 C 228.871094 312.066406 228.109375 312.117188 227.339844 312.136719 L 227.339844 328.5 C 245.5 328.242188 261.285156 317.835938 268.882812 302.261719 " fill-opacity="1" fill-rule="nonzero"/><g clip-path="url(#ef6d615e4d)"><path fill="#5650e8" d="M 276.605469 275.019531 C 276.605469 247.433594 254.242188 225.070312 226.65625 225.070312 L 140.269531 225.070312 L 140.269531 247.269531 L 226.65625 247.269531 C 251.5625 247.269531 272.207031 265.5 275.980469 289.34375 C 276.386719 286.78125 276.605469 284.152344 276.605469 281.476562 L 276.605469 275.019531 " fill-opacity="1" fill-rule="nonzero"/></g><path fill="#51ade5" d="M 143.191406 227.988281 L 143.191406 244.351562 L 147.132812 244.351562 L 147.132812 231.367188 L 230.597656 231.367188 C 241.355469 231.367188 251.269531 235.003906 259.207031 241.105469 C 250.75 232.988281 239.273438 227.988281 226.65625 227.988281 L 143.191406 227.988281 " fill-opacity="1" fill-rule="nonzero"/><path fill="#51ade5" d="M 104.734375 309.222656 C 89.433594 309.222656 76.988281 296.773438 76.988281 281.476562 L 76.988281 275.019531 C 76.988281 259.722656 89.433594 247.269531 104.734375 247.269531 L 106.972656 247.269531 L 106.972656 225.070312 L 104.734375 225.070312 C 79.828125 225.070312 59.1875 243.304688 55.410156 267.148438 C 59.1875 290.992188 79.828125 309.222656 104.734375 309.222656 " fill-opacity="1" fill-rule="nonzero"/><path fill="#5fc3f0" d="M 62.507812 254.234375 C 70.4375 240.550781 85.082031 231.589844 101.765625 231.359375 L 101.765625 244.503906 C 102.523438 244.429688 103.285156 244.375 104.050781 244.359375 L 104.050781 227.996094 C 85.890625 228.25 70.105469 238.65625 62.507812 254.234375 " fill-opacity="1" fill-rule="nonzero"/><g clip-path="url(#0744b757a1)"><path fill="#5650e8" d="M 54.789062 281.476562 C 54.789062 309.0625 77.148438 331.421875 104.734375 331.421875 L 191.121094 331.421875 L 191.121094 309.222656 L 104.734375 309.222656 C 79.828125 309.222656 59.1875 290.992188 55.410156 267.148438 C 55.003906 269.710938 54.789062 272.34375 54.789062 275.019531 L 54.789062 281.476562 " fill-opacity="1" fill-rule="nonzero"/></g><path fill="#51ade5" d="M 188.199219 328.503906 L 188.199219 312.144531 L 184.261719 312.144531 L 184.261719 325.128906 L 100.792969 325.128906 C 90.035156 325.128906 80.117188 321.488281 72.1875 315.390625 C 80.640625 323.507812 92.117188 328.503906 104.734375 328.503906 L 188.199219 328.503906 " fill-opacity="1" fill-rule="nonzero"/><g fill="#000000" fill-opacity="1"><g transform="translate(321.492737, 340.993537)"><g><path d="M 78.65625 2.390625 C 58.6875 2.390625 43.144531 -3.128906 32.03125 -14.171875 C 20.925781 -25.222656 15.375 -40.992188 15.375 -61.484375 L 15.375 -139.734375 L 47.703125 -139.734375 L 47.703125 -62.6875 C 47.703125 -37.664062 58.085938 -25.15625 78.859375 -25.15625 C 88.960938 -25.15625 96.675781 -28.179688 102 -34.234375 C 107.332031 -40.285156 110 -49.769531 110 -62.6875 L 110 -139.734375 L 141.9375 -139.734375 L 141.9375 -61.484375 C 141.9375 -40.992188 136.378906 -25.222656 125.265625 -14.171875 C 114.148438 -3.128906 98.613281 2.390625 78.65625 2.390625 Z M 78.65625 2.390625 "/></g></g></g><g fill="#000000" fill-opacity="1"><g transform="translate(484.786126, 340.993537)"><g><path d="M 79.65625 -109 C 92.957031 -109 103.703125 -105.003906 111.890625 -97.015625 C 120.078125 -89.035156 124.171875 -77.191406 124.171875 -61.484375 L 124.171875 0 L 93.03125 0 L 93.03125 -56.6875 C 93.03125 -65.207031 91.164062 -71.5625 87.4375 -75.75 C 83.707031 -79.945312 78.316406 -82.046875 71.265625 -82.046875 C 63.410156 -82.046875 57.15625 -79.613281 52.5 -74.75 C 47.84375 -69.894531 45.515625 -62.675781 45.515625 -53.09375 L 45.515625 0 L 14.375 0 L 14.375 -107.390625 L 44.109375 -107.390625 L 44.109375 -94.828125 C 48.242188 -99.347656 53.367188 -102.835938 59.484375 -105.296875 C 65.609375 -107.765625 72.332031 -109 79.65625 -109 Z M 79.65625 -109 "/></g></g></g><g fill="#000000" fill-opacity="1"><g transform="translate(628.715874, 340.993537)"><g><path d="M 14.375 -107.390625 L 45.515625 -107.390625 L 45.515625 0 L 14.375 0 Z M 29.9375 -122.375 C 24.21875 -122.375 19.5625 -124.035156 15.96875 -127.359375 C 12.375 -130.679688 10.578125 -134.804688 10.578125 -139.734375 C 10.578125 -144.660156 12.375 -148.785156 15.96875 -152.109375 C 19.5625 -155.441406 24.21875 -157.109375 29.9375 -157.109375 C 35.664062 -157.109375 40.320312 -155.507812 43.90625 -152.3125 C 47.5 -149.113281 49.296875 -145.125 49.296875 -140.34375 C 49.296875 -135.144531 47.5 -130.847656 43.90625 -127.453125 C 40.320312 -124.066406 35.664062 -122.375 29.9375 -122.375 Z M 29.9375 -122.375 "/></g></g></g><g fill="#000000" fill-opacity="1"><g transform="translate(694.791857, 340.993537)"><g><path d="M 48.515625 -105 L 76.0625 -105 L 76.0625 -81.046875 L 49.3125 -81.046875 L 49.3125 0 L 18.171875 0 L 18.171875 -81.046875 L 1.59375 -81.046875 L 1.59375 -105 L 18.171875 -105 L 18.171875 -109.796875 C 18.171875 -122.035156 21.796875 -131.75 29.046875 -138.9375 C 36.296875 -146.125 46.507812 -149.71875 59.6875 -149.71875 C 64.34375 -149.71875 68.765625 -149.21875 72.953125 -148.21875 C 77.148438 -147.21875 80.644531 -145.785156 83.4375 -143.921875 L 75.265625 -121.375 C 71.671875 -123.90625 67.476562 -125.171875 62.6875 -125.171875 C 53.238281 -125.171875 48.515625 -119.976562 48.515625 -109.59375 Z M 48.515625 -105 "/></g></g></g><g fill="#000000" fill-opacity="1"><g transform="translate(778.035624, 340.993537)"><g><path d="M 120.96875 -107.390625 L 72.46875 6.59375 C 67.539062 18.96875 61.445312 27.679688 54.1875 32.734375 C 46.9375 37.796875 38.191406 40.328125 27.953125 40.328125 C 22.359375 40.328125 16.832031 39.460938 11.375 37.734375 C 5.914062 36.003906 1.457031 33.609375 -2 30.546875 L 9.375 8.390625 C 11.769531 10.515625 14.53125 12.175781 17.65625 13.375 C 20.789062 14.570312 23.890625 15.171875 26.953125 15.171875 C 31.210938 15.171875 34.671875 14.140625 37.328125 12.078125 C 39.992188 10.015625 42.390625 6.585938 44.515625 1.796875 L 44.921875 0.796875 L -1.59375 -107.390625 L 30.546875 -107.390625 L 60.6875 -34.53125 L 91.03125 -107.390625 Z M 120.96875 -107.390625 "/></g></g></g></svg>